# xmcd
#
# Track frame offsets:
#	150
#	22693
#	36013
#	53766
#	69503
#	81784
#	97015
#	107669
#	120118
#	133995
#	142251
#
# Disc length: 2157 seconds
#
# Revision: 0
# Processed by: cddbd v1.4PL0 Copyright (c) Steve Scherf et al.
# Submitted via: dBpowerAMP V4.0
#
DISCID=8e086b0b
DTITLE=Red Sovine - Best Of The Best
DYEAR=1900
DGENRE=Country
TTITLE0=Teddy Bear
TTITLE1=It'll Come Back
TTITLE2=Giddy-Up Go
TTITLE3=Daddy's Girl
TTITLE4=Colorado Kool-Aid
TTITLE5=Phantom 309
TTITLE6=I Know You're Married But I Still Love You
TTITLE7=Old Rivers
TTITLE8=18 Wheels Hummin' Home Sweet Home
TTITLE9=He's Got The Whole World In His Hands
TTITLE10=Daddy
EXTD=
EXTT0=
EXTT1=
EXTT2=
EXTT3=
EXTT4=
EXTT5=
EXTT6=
EXTT7=
EXTT8=
EXTT9=
EXTT10=
PLAYORDER=
